<svg width="595" height="94" viewBox="0 0 595 94" fill="none" xmlns="http://www.w3.org/2000/svg">
<path d="M6.80114 8.36364C6.74148 7.85985 6.49953 7.46875 6.07528 7.19034C5.65104 6.91193 5.13068 6.77273 4.5142 6.77273C4.06345 6.77273 3.66903 6.84564 3.33097 6.99148C2.99621 7.13731 2.73438 7.33783 2.54545 7.59304C2.35985 7.84825 2.26705 8.13826 2.26705 8.46307C2.26705 8.73485 2.33168 8.96851 2.46094 9.16406C2.59351 9.3563 2.76255 9.51705 2.96804 9.64631C3.17353 9.77225 3.38897 9.87666 3.61435 9.95952C3.83973 10.0391 4.04688 10.1037 4.2358 10.1534L5.26989 10.4318C5.53504 10.5014 5.83002 10.5975 6.15483 10.7202C6.48295 10.8428 6.79616 11.0102 7.09446 11.2223C7.39607 11.4311 7.64465 11.6996 7.8402 12.0277C8.03575 12.3558 8.13352 12.7585 8.13352 13.2358C8.13352 13.786 7.98935 14.2831 7.70099 14.7273C7.41596 15.1714 6.99834 15.5244 6.44815 15.7862C5.90128 16.0481 5.23674 16.179 4.45455 16.179C3.72538 16.179 3.09399 16.0613 2.56037 15.826C2.03007 15.5907 1.61245 15.2625 1.30753 14.8416C1.00592 14.4207 0.835227 13.9318 0.795455 13.375H2.06818C2.10133 13.7595 2.23059 14.0777 2.45597 14.3295C2.68466 14.5781 2.97301 14.7637 3.32102 14.8864C3.67235 15.0057 4.05019 15.0653 4.45455 15.0653C4.92519 15.0653 5.34777 14.9891 5.7223 14.8366C6.09683 14.6809 6.39347 14.4654 6.61222 14.1903C6.83097 13.9119 6.94034 13.5871 6.94034 13.2159C6.94034 12.8778 6.84588 12.6027 6.65696 12.3906C6.46804 12.1785 6.21946 12.0062 5.91122 11.8736C5.60298 11.741 5.26989 11.625 4.91193 11.5256L3.65909 11.1676C2.86364 10.9389 2.2339 10.6125 1.76989 10.1882C1.30587 9.76397 1.07386 9.20881 1.07386 8.52273C1.07386 7.95265 1.22798 7.45549 1.53622 7.03125C1.84777 6.60369 2.26539 6.27225 2.78906 6.03693C3.31605 5.7983 3.90436 5.67898 4.55398 5.67898C5.21023 5.67898 5.79356 5.79664 6.30398 6.03196C6.81439 6.26397 7.21875 6.58215 7.51705 6.98651C7.81866 7.39086 7.97775 7.8499 7.99432 8.36364H6.80114ZM13.1039 16.1591C12.388 16.1591 11.7715 15.9901 11.2544 15.652C10.7374 15.3139 10.3397 14.8482 10.0613 14.255C9.78285 13.6617 9.64364 12.9839 9.64364 12.2216C9.64364 11.446 9.78616 10.7616 10.0712 10.1683C10.3596 9.57173 10.7606 9.10606 11.2743 8.77131C11.7914 8.43324 12.3946 8.2642 13.084 8.2642C13.6209 8.2642 14.1048 8.36364 14.5357 8.5625C14.9666 8.76136 15.3195 9.03977 15.5946 9.39773C15.8697 9.75568 16.0404 10.1733 16.1067 10.6506H14.9334C14.8439 10.3026 14.6451 9.99432 14.3368 9.72585C14.0319 9.45407 13.6209 9.31818 13.1039 9.31818C12.6465 9.31818 12.2454 9.4375 11.9007 9.67614C11.5594 9.91146 11.2926 10.2446 11.1003 10.6754C10.9114 11.103 10.8169 11.6051 10.8169 12.1818C10.8169 12.7718 10.9097 13.2855 11.0953 13.723C11.2843 14.1605 11.5494 14.5002 11.8908 14.7422C12.2355 14.9841 12.6399 15.1051 13.1039 15.1051C13.4088 15.1051 13.6855 15.0521 13.9341 14.946C14.1827 14.84 14.3932 14.6875 14.5655 14.4886C14.7379 14.2898 14.8605 14.0511 14.9334 13.7727H16.1067C16.0404 14.2235 15.8764 14.6295 15.6145 14.9908C15.356 15.3487 15.013 15.6338 14.5854 15.8459C14.1612 16.0547 13.6673 16.1591 13.1039 16.1591ZM20.9242 16.1591C20.2348 16.1591 19.6299 15.995 19.1096 15.6669C18.5925 15.3388 18.1882 14.8797 17.8965 14.2898C17.6081 13.6998 17.464 13.0104 17.464 12.2216C17.464 11.4261 17.6081 10.7318 17.8965 10.1385C18.1882 9.54522 18.5925 9.08452 19.1096 8.75639C19.6299 8.42827 20.2348 8.2642 20.9242 8.2642C21.6136 8.2642 22.2168 8.42827 22.7338 8.75639C23.2542 9.08452 23.6586 9.54522 23.9469 10.1385C24.2386 10.7318 24.3844 11.4261 24.3844 12.2216C24.3844 13.0104 24.2386 13.6998 23.9469 14.2898C23.6586 14.8797 23.2542 15.3388 22.7338 15.6669C22.2168 15.995 21.6136 16.1591 20.9242 16.1591ZM20.9242 15.1051C21.4479 15.1051 21.8787 14.9709 22.2168 14.7024C22.5549 14.4339 22.8051 14.081 22.9675 13.6435C23.1299 13.206 23.2111 12.732 23.2111 12.2216C23.2111 11.7112 23.1299 11.2356 22.9675 10.7947C22.8051 10.3539 22.5549 9.99763 22.2168 9.72585C21.8787 9.45407 21.4479 9.31818 20.9242 9.31818C20.4005 9.31818 19.9696 9.45407 19.6316 9.72585C19.2935 9.99763 19.0433 10.3539 18.8809 10.7947C18.7185 11.2356 18.6373 11.7112 18.6373 12.2216C18.6373 12.732 18.7185 13.206 18.8809 13.6435C19.0433 14.081 19.2935 14.4339 19.6316 14.7024C19.9696 14.9709 20.4005 15.1051 20.9242 15.1051ZM29.4964 8.36364V9.35795H25.5391V8.36364H29.4964ZM26.6925 6.53409H27.8658V13.8125C27.8658 14.1439 27.9138 14.3925 28.0099 14.5582C28.1094 14.7206 28.2353 14.83 28.3878 14.8864C28.5436 14.9394 28.7076 14.9659 28.88 14.9659C29.0092 14.9659 29.1153 14.9593 29.1982 14.946C29.281 14.9295 29.3473 14.9162 29.397 14.9062L29.6357 15.9602C29.5561 15.9901 29.4451 16.0199 29.3026 16.0497C29.16 16.0829 28.9794 16.0994 28.7607 16.0994C28.4292 16.0994 28.1044 16.0282 27.7862 15.8857C27.4714 15.7431 27.2095 15.526 27.0007 15.2344C26.7952 14.9427 26.6925 14.5748 26.6925 14.1307V6.53409ZM34.5824 8.36364V9.35795H30.625V8.36364H34.5824ZM31.7784 6.53409H32.9517V13.8125C32.9517 14.1439 32.9998 14.3925 33.0959 14.5582C33.1953 14.7206 33.3213 14.83 33.4737 14.8864C33.6295 14.9394 33.7936 14.9659 33.9659 14.9659C34.0952 14.9659 34.2012 14.9593 34.2841 14.946C34.367 14.9295 34.4332 14.9162 34.483 14.9062L34.7216 15.9602C34.642 15.9901 34.531 16.0199 34.3885 16.0497C34.246 16.0829 34.0653 16.0994 33.8466 16.0994C33.5152 16.0994 33.1903 16.0282 32.8722 15.8857C32.5573 15.7431 32.2955 15.526 32.0866 15.2344C31.8812 14.9427 31.7784 14.5748 31.7784 14.1307V6.53409Z" fill="#B3B3B3"/>
<path d="M1.65057 50H0.357955L4.09659 39.8182H5.36932L9.10795 50H7.81534L4.77273 41.429H4.69318L1.65057 50ZM2.12784 46.0227H7.33807V47.1165H2.12784V46.0227ZM10.5348 52.8636V42.3636H11.6683V43.5767H11.8075C11.8937 43.4441 12.013 43.2751 12.1655 43.0696C12.3213 42.8608 12.5433 42.6752 12.8317 42.5128C13.1233 42.3471 13.5178 42.2642 14.0149 42.2642C14.6579 42.2642 15.2247 42.425 15.7152 42.7464C16.2057 43.0679 16.5885 43.5237 16.8636 44.1136C17.1387 44.7036 17.2763 45.3996 17.2763 46.2017C17.2763 47.0104 17.1387 47.7114 16.8636 48.3047C16.5885 48.8946 16.2074 49.352 15.7202 49.6768C15.233 49.9983 14.6712 50.1591 14.0348 50.1591C13.5443 50.1591 13.1515 50.0779 12.8565 49.9155C12.5616 49.7498 12.3345 49.5625 12.1754 49.3537C12.0163 49.1416 11.8937 48.9659 11.8075 48.8267H11.7081V52.8636H10.5348ZM11.6882 46.1818C11.6882 46.7585 11.7727 47.2673 11.9418 47.7081C12.1108 48.1456 12.3577 48.4886 12.6825 48.7372C13.0073 48.9825 13.4051 49.1051 13.8757 49.1051C14.3662 49.1051 14.7756 48.9759 15.1037 48.7173C15.4351 48.4555 15.6837 48.1042 15.8494 47.6634C16.0185 47.2192 16.103 46.7254 16.103 46.1818C16.103 45.6449 16.0201 45.161 15.8544 44.7301C15.692 44.2959 15.4451 43.9529 15.1136 43.701C14.7855 43.4458 14.3729 43.3182 13.8757 43.3182C13.3984 43.3182 12.9974 43.4392 12.6726 43.6811C12.3478 43.9197 12.1025 44.2545 11.9368 44.6854C11.7711 45.1129 11.6882 45.6117 11.6882 46.1818ZM18.068 43.4574V42.3636H24.2725V43.4574H21.7669V50H20.5936V43.4574H18.068ZM27.1573 48.2699L30.8363 42.3636H32.1886V50H31.0153V44.0938L27.3562 50H25.984V42.3636H27.1573V48.2699ZM34.3375 50V42.3636H35.5108V45.6847H36.2864L39.0307 42.3636H40.5421L37.4597 46.0426L40.5819 50H39.0705L36.5648 46.7784H35.5108V50H34.3375ZM42.6127 52.8636C42.4139 52.8636 42.2366 52.8471 42.0808 52.8139C41.925 52.7841 41.8173 52.7543 41.7576 52.7244L42.0559 51.6903C42.341 51.7633 42.5929 51.7898 42.8116 51.7699C43.0304 51.75 43.2243 51.6522 43.3933 51.4766C43.5656 51.3042 43.7231 51.0241 43.8656 50.6364L44.0843 50.0398L41.2605 42.3636H42.5332L44.6412 48.4489H44.7207L46.8287 42.3636H48.1014L44.8599 51.1136C44.7141 51.508 44.5334 51.8345 44.318 52.093C44.1026 52.3549 43.8523 52.5488 43.5673 52.6747C43.2856 52.8007 42.9674 52.8636 42.6127 52.8636ZM48.3313 50V48.9062H48.6097C48.8384 48.9062 49.029 48.8615 49.1815 48.772C49.3339 48.6792 49.4566 48.5185 49.5494 48.2898C49.6455 48.0578 49.7184 47.7363 49.7681 47.3253C49.8211 46.911 49.8593 46.384 49.8825 45.7443L50.0217 42.3636H55.1126V50H53.9393V43.4574H51.1353L51.016 46.1818C50.9895 46.8082 50.9331 47.3601 50.8469 47.8374C50.7641 48.3113 50.6365 48.709 50.4641 49.0305C50.2951 49.352 50.0697 49.594 49.788 49.7564C49.5063 49.9188 49.1533 50 48.729 50H48.3313ZM62.0579 48.6974C61.8126 48.6974 61.6022 48.6096 61.4265 48.4339C61.2508 48.2583 61.163 48.0478 61.163 47.8026C61.163 47.5573 61.2508 47.3468 61.4265 47.1712C61.6022 46.9955 61.8126 46.9077 62.0579 46.9077C62.3031 46.9077 62.5136 46.9955 62.6893 47.1712C62.8649 47.3468 62.9528 47.5573 62.9528 47.8026C62.9528 47.965 62.9113 48.1141 62.8285 48.25C62.7489 48.3859 62.6412 48.4953 62.5053 48.5781C62.3728 48.6577 62.2236 48.6974 62.0579 48.6974ZM62.0579 43.5469C61.8126 43.5469 61.6022 43.459 61.4265 43.2834C61.2508 43.1077 61.163 42.8973 61.163 42.652C61.163 42.4067 61.2508 42.1963 61.4265 42.0206C61.6022 41.8449 61.8126 41.7571 62.0579 41.7571C62.3031 41.7571 62.5136 41.8449 62.6893 42.0206C62.8649 42.1963 62.9528 42.4067 62.9528 42.652C62.9528 42.8144 62.9113 42.9635 62.8285 43.0994C62.7489 43.2353 62.6412 43.3447 62.5053 43.4276C62.3728 43.5071 62.2236 43.5469 62.0579 43.5469ZM69.294 50L73.848 40.9915V40.9119H68.598V39.8182H75.1207V40.9716L70.5866 50H69.294ZM80.1358 50.1392C79.7182 50.1326 79.3006 50.053 78.883 49.9006C78.4654 49.7481 78.0842 49.4912 77.7395 49.13C77.3948 48.7654 77.1181 48.2732 76.9093 47.6534C76.7005 47.0303 76.5961 46.2481 76.5961 45.3068C76.5961 44.4053 76.6806 43.6065 76.8496 42.9105C77.0186 42.2112 77.2639 41.6229 77.5854 41.1456C77.9069 40.665 78.2947 40.3004 78.7488 40.0518C79.2061 39.8033 79.7215 39.679 80.2949 39.679C80.865 39.679 81.3721 39.7933 81.8162 40.022C82.2637 40.2474 82.6283 40.5623 82.91 40.9666C83.1917 41.371 83.374 41.8366 83.4569 42.3636H82.2438C82.1311 41.9062 81.9123 41.5268 81.5875 41.2251C81.2627 40.9235 80.8319 40.7727 80.2949 40.7727C79.5061 40.7727 78.8846 41.1158 78.4306 41.8018C77.9798 42.4879 77.7528 43.4508 77.7495 44.6903H77.829C78.0146 44.4086 78.235 44.1683 78.4902 43.9695C78.7488 43.7673 79.0338 43.6115 79.3453 43.5021C79.6569 43.3928 79.9867 43.3381 80.3347 43.3381C80.918 43.3381 81.4516 43.4839 81.9355 43.7756C82.4194 44.0639 82.8072 44.4633 83.0989 44.9737C83.3906 45.4808 83.5364 46.0625 83.5364 46.7188C83.5364 47.3485 83.3955 47.9252 83.1138 48.4489C82.8321 48.9692 82.436 49.3835 81.9256 49.6918C81.4185 49.9967 80.8219 50.1458 80.1358 50.1392ZM80.1358 49.0455C80.5534 49.0455 80.928 48.9411 81.2594 48.7322C81.5942 48.5234 81.8577 48.2434 82.0499 47.892C82.2454 47.5407 82.3432 47.1496 82.3432 46.7188C82.3432 46.2978 82.2488 45.915 82.0598 45.5703C81.8742 45.2223 81.6174 44.9455 81.2892 44.7401C80.9644 44.5346 80.5932 44.4318 80.1756 44.4318C79.8607 44.4318 79.5674 44.4948 79.2956 44.6207C79.0239 44.7434 78.7852 44.9124 78.5797 45.1278C78.3775 45.3433 78.2185 45.5902 78.1025 45.8686C77.9864 46.1437 77.9284 46.4337 77.9284 46.7386C77.9284 47.143 78.0229 47.5208 78.2118 47.8722C78.4041 48.2235 78.6659 48.5069 78.9973 48.7223C79.3321 48.9377 79.7116 49.0455 80.1358 49.0455ZM88.6733 50.1392C88.09 50.1392 87.5646 50.0232 87.0973 49.7912C86.63 49.5592 86.2554 49.241 85.9737 48.8366C85.692 48.4323 85.5379 47.9716 85.5114 47.4545H86.7045C86.7509 47.9152 86.9598 48.2964 87.331 48.598C87.7055 48.8963 88.1529 49.0455 88.6733 49.0455C89.0909 49.0455 89.4621 48.9477 89.7869 48.7521C90.1151 48.5566 90.3719 48.2881 90.5575 47.9467C90.7464 47.602 90.8409 47.2126 90.8409 46.7784C90.8409 46.3343 90.7431 45.9382 90.5476 45.5902C90.3554 45.2389 90.0902 44.9621 89.7521 44.7599C89.4141 44.5578 89.0279 44.455 88.5938 44.4517C88.2822 44.4484 87.9624 44.4964 87.6342 44.5959C87.3061 44.692 87.036 44.8163 86.8239 44.9688L85.6705 44.8295L86.2869 39.8182H91.5767V40.9119H87.321L86.9631 43.9148H87.0227C87.2315 43.7491 87.4934 43.6115 87.8082 43.5021C88.1231 43.3928 88.4512 43.3381 88.7926 43.3381C89.4157 43.3381 89.9709 43.4872 90.4581 43.7855C90.9486 44.0805 91.3331 44.4848 91.6115 44.9986C91.8932 45.5123 92.0341 46.099 92.0341 46.7585C92.0341 47.4081 91.8883 47.9882 91.5966 48.4986C91.3082 49.0057 90.9105 49.4067 90.4034 49.7017C89.8963 49.9934 89.3196 50.1392 88.6733 50.1392ZM97.1909 50.1392C96.6075 50.1392 96.0822 50.0232 95.6149 49.7912C95.1475 49.5592 94.773 49.241 94.4913 48.8366C94.2096 48.4323 94.0555 47.9716 94.0289 47.4545H95.2221C95.2685 47.9152 95.4773 48.2964 95.8485 48.598C96.2231 48.8963 96.6705 49.0455 97.1909 49.0455C97.6085 49.0455 97.9797 48.9477 98.3045 48.7521C98.6326 48.5566 98.8895 48.2881 99.0751 47.9467C99.264 47.602 99.3585 47.2126 99.3585 46.7784C99.3585 46.3343 99.2607 45.9382 99.0652 45.5902C98.8729 45.2389 98.6078 44.9621 98.2697 44.7599C97.9316 44.5578 97.5455 44.455 97.1113 44.4517C96.7998 44.4484 96.4799 44.4964 96.1518 44.5959C95.8237 44.692 95.5536 44.8163 95.3414 44.9688L94.188 44.8295L94.8045 39.8182H100.094V40.9119H95.8386L95.4806 43.9148H95.5403C95.7491 43.7491 96.0109 43.6115 96.3258 43.5021C96.6407 43.3928 96.9688 43.3381 97.3102 43.3381C97.9333 43.3381 98.4885 43.4872 98.9757 43.7855C99.4662 44.0805 99.8507 44.4848 100.129 44.9986C100.411 45.5123 100.552 46.099 100.552 46.7585C100.552 47.4081 100.406 47.9882 100.114 48.4986C99.8258 49.0057 99.4281 49.4067 98.921 49.7017C98.4139 49.9934 97.8372 50.1392 97.1909 50.1392ZM106.922 44.3622V45.456H102.467V44.3622H106.922ZM112.546 39.8182V50H111.313V41.1108H111.253L108.767 42.7614V41.5085L111.313 39.8182H112.546ZM118.735 50.1392C118.052 50.1392 117.449 50.0182 116.926 49.7763C116.405 49.531 115.999 49.1946 115.708 48.767C115.416 48.3362 115.272 47.8456 115.275 47.2955C115.272 46.8646 115.356 46.4669 115.529 46.1023C115.701 45.7344 115.936 45.4278 116.235 45.1825C116.536 44.9339 116.873 44.7765 117.244 44.7102V44.6506C116.757 44.5246 116.369 44.2512 116.08 43.8303C115.792 43.406 115.65 42.9238 115.653 42.3835C115.65 41.8665 115.78 41.4041 116.046 40.9964C116.311 40.5888 116.675 40.2673 117.139 40.032C117.607 39.7966 118.139 39.679 118.735 39.679C119.325 39.679 119.852 39.7966 120.316 40.032C120.78 40.2673 121.145 40.5888 121.41 40.9964C121.678 41.4041 121.814 41.8665 121.818 42.3835C121.814 42.9238 121.667 43.406 121.375 43.8303C121.087 44.2512 120.704 44.5246 120.227 44.6506V44.7102C120.595 44.7765 120.926 44.9339 121.221 45.1825C121.516 45.4278 121.751 45.7344 121.927 46.1023C122.103 46.4669 122.192 46.8646 122.195 47.2955C122.192 47.8456 122.043 48.3362 121.748 48.767C121.456 49.1946 121.05 49.531 120.53 49.7763C120.013 50.0182 119.415 50.1392 118.735 50.1392ZM118.735 49.0455C119.196 49.0455 119.594 48.9709 119.928 48.8217C120.263 48.6726 120.522 48.4621 120.704 48.1903C120.886 47.9186 120.979 47.6004 120.982 47.2358C120.979 46.8513 120.88 46.5116 120.684 46.2166C120.489 45.9216 120.222 45.6896 119.884 45.5206C119.549 45.3516 119.166 45.267 118.735 45.267C118.301 45.267 117.913 45.3516 117.572 45.5206C117.234 45.6896 116.967 45.9216 116.771 46.2166C116.579 46.5116 116.485 46.8513 116.488 47.2358C116.485 47.6004 116.573 47.9186 116.752 48.1903C116.934 48.4621 117.194 48.6726 117.532 48.8217C117.87 48.9709 118.271 49.0455 118.735 49.0455ZM118.735 44.2131C119.1 44.2131 119.423 44.1402 119.705 43.9943C119.99 43.8485 120.213 43.6446 120.376 43.3828C120.538 43.121 120.621 42.8144 120.624 42.4631C120.621 42.1184 120.54 41.8184 120.381 41.5632C120.222 41.3047 120.001 41.1058 119.72 40.9666C119.438 40.8241 119.11 40.7528 118.735 40.7528C118.354 40.7528 118.021 40.8241 117.736 40.9666C117.451 41.1058 117.231 41.3047 117.075 41.5632C116.919 41.8184 116.843 42.1184 116.846 42.4631C116.843 42.8144 116.921 43.121 117.08 43.3828C117.242 43.6446 117.466 43.8485 117.751 43.9943C118.036 44.1402 118.364 44.2131 118.735 44.2131ZM127.362 50.1392C126.679 50.1392 126.076 50.0182 125.553 49.7763C125.032 49.531 124.626 49.1946 124.335 48.767C124.043 48.3362 123.899 47.8456 123.902 47.2955C123.899 46.8646 123.983 46.4669 124.156 46.1023C124.328 45.7344 124.563 45.4278 124.862 45.1825C125.163 44.9339 125.5 44.7765 125.871 44.7102V44.6506C125.384 44.5246 124.996 44.2512 124.707 43.8303C124.419 43.406 124.277 42.9238 124.28 42.3835C124.277 41.8665 124.407 41.4041 124.673 40.9964C124.938 40.5888 125.302 40.2673 125.766 40.032C126.234 39.7966 126.766 39.679 127.362 39.679C127.952 39.679 128.479 39.7966 128.943 40.032C129.407 40.2673 129.772 40.5888 130.037 40.9964C130.305 41.4041 130.441 41.8665 130.445 42.3835C130.441 42.9238 130.294 43.406 130.002 43.8303C129.714 44.2512 129.331 44.5246 128.854 44.6506V44.7102C129.222 44.7765 129.553 44.9339 129.848 45.1825C130.143 45.4278 130.378 45.7344 130.554 46.1023C130.73 46.4669 130.819 46.8646 130.822 47.2955C130.819 47.8456 130.67 48.3362 130.375 48.767C130.083 49.1946 129.677 49.531 129.157 49.7763C128.64 50.0182 128.042 50.1392 127.362 50.1392ZM127.362 49.0455C127.823 49.0455 128.221 48.9709 128.555 48.8217C128.89 48.6726 129.149 48.4621 129.331 48.1903C129.513 47.9186 129.606 47.6004 129.609 47.2358C129.606 46.8513 129.507 46.5116 129.311 46.2166C129.116 45.9216 128.849 45.6896 128.511 45.5206C128.176 45.3516 127.793 45.267 127.362 45.267C126.928 45.267 126.54 45.3516 126.199 45.5206C125.861 45.6896 125.594 45.9216 125.398 46.2166C125.206 46.5116 125.112 46.8513 125.115 47.2358C125.112 47.6004 125.2 47.9186 125.379 48.1903C125.561 48.4621 125.821 48.6726 126.159 48.8217C126.497 48.9709 126.898 49.0455 127.362 49.0455ZM127.362 44.2131C127.727 44.2131 128.05 44.1402 128.332 43.9943C128.617 43.8485 128.84 43.6446 129.003 43.3828C129.165 43.121 129.248 42.8144 129.251 42.4631C129.248 42.1184 129.167 41.8184 129.008 41.5632C128.849 41.3047 128.628 41.1058 128.347 40.9666C128.065 40.8241 127.737 40.7528 127.362 40.7528C126.981 40.7528 126.648 40.8241 126.363 40.9666C126.078 41.1058 125.857 41.3047 125.702 41.5632C125.546 41.8184 125.47 42.1184 125.473 42.4631C125.47 42.8144 125.548 43.121 125.707 43.3828C125.869 43.6446 126.093 43.8485 126.378 43.9943C126.663 44.1402 126.991 44.2131 127.362 44.2131Z" fill="#B3B3B3"/>
<rect x="456" y="32" width="22" height="21" rx="10.5" fill="#4C4C4C"/>
<path d="M470.431 43.9663C470.72 43.6909 470.761 43.2973 470.514 42.9038C470.307 42.5889 469.936 42.4315 469.524 42.5102C469.359 42.5496 469.194 42.6283 469.029 42.7463C467.751 43.5728 466.02 43.5334 464.742 42.707C464.659 42.6676 464.577 42.6283 464.494 42.5889C464.041 42.3922 463.587 42.4709 463.34 42.8644C463.051 43.258 463.092 43.6909 463.463 44.045C463.546 44.1238 463.628 44.1631 463.67 44.2418L463.711 44.2812C464.288 44.7141 464.989 44.9896 465.896 45.1076L465.36 45.6192C464.906 46.0521 464.412 46.5244 463.958 46.9573C463.835 47.0753 463.67 47.2721 463.67 47.5476C463.67 47.9018 463.876 48.256 464.247 48.4134C464.37 48.4921 464.494 48.4921 464.618 48.4921C464.824 48.4921 465.071 48.4134 465.236 48.2166C465.855 47.6263 466.349 47.1541 466.844 46.6818C466.885 46.6424 466.885 46.6424 466.885 46.6424C466.885 46.6424 466.927 46.6424 466.927 46.6818C467.256 47.036 467.628 47.3508 467.957 47.705C468.122 47.8624 468.287 48.0199 468.452 48.1773C468.658 48.374 468.823 48.4528 469.071 48.4528C469.442 48.4921 469.854 48.256 470.019 47.9018C470.184 47.5869 470.101 47.1934 469.813 46.9573C469.4 46.5637 468.988 46.1308 468.535 45.7373L467.834 45.0683C468.205 45.0289 468.617 44.9502 468.988 44.7928C469.607 44.596 470.06 44.3205 470.431 43.9663Z" fill="white"/>
<path d="M466.885 42.8644C468.658 42.8644 470.101 41.5263 470.101 39.8341C470.101 39.0077 469.771 38.2206 469.153 37.6303C468.535 37.0399 467.751 36.7251 466.927 36.7251C465.154 36.7251 463.752 38.1025 463.711 39.7554C463.711 40.5818 464.041 41.3296 464.659 41.9199C465.236 42.5496 466.02 42.8644 466.885 42.8644ZM465.978 38.929C466.226 38.6928 466.556 38.5748 466.885 38.5748C467.628 38.5748 468.164 39.1257 468.164 39.7948C468.164 40.5031 467.586 41.0147 466.885 41.0147C466.143 41.0147 465.607 40.4638 465.607 39.7948C465.607 39.4799 465.731 39.1651 465.978 38.929Z" fill="white"/>
<path d="M470.431 43.9663C470.72 43.6909 470.761 43.2973 470.514 42.9038C470.307 42.5889 469.936 42.4315 469.524 42.5102C469.359 42.5496 469.194 42.6283 469.029 42.7463C467.751 43.5728 466.02 43.5334 464.742 42.707C464.659 42.6676 464.577 42.6283 464.494 42.5889C464.041 42.3922 463.587 42.4709 463.34 42.8644C463.051 43.258 463.092 43.6909 463.463 44.045C463.546 44.1238 463.628 44.1631 463.67 44.2418L463.711 44.2812C464.288 44.7141 464.989 44.9896 465.896 45.1076L465.36 45.6192C464.906 46.0521 464.412 46.5244 463.958 46.9573C463.835 47.0753 463.67 47.2721 463.67 47.5476C463.67 47.9018 463.876 48.256 464.247 48.4134C464.37 48.4921 464.494 48.4921 464.618 48.4921C464.824 48.4921 465.071 48.4134 465.236 48.2166C465.855 47.6263 466.349 47.1541 466.844 46.6818C466.885 46.6424 466.885 46.6424 466.885 46.6424C466.885 46.6424 466.927 46.6424 466.927 46.6818C467.256 47.036 467.628 47.3508 467.957 47.705C468.122 47.8624 468.287 48.0199 468.452 48.1773C468.658 48.374 468.823 48.4528 469.071 48.4528C469.442 48.4921 469.854 48.256 470.019 47.9018C470.184 47.5869 470.101 47.1934 469.813 46.9573C469.4 46.5637 468.988 46.1308 468.535 45.7373L467.834 45.0683C468.205 45.0289 468.617 44.9502 468.988 44.7928C469.607 44.596 470.06 44.3205 470.431 43.9663Z" fill="white"/>
<rect x="486" y="32" width="21" height="21" rx="10.5" fill="#E5E5E5"/>
<path d="M497.015 46.175C493.069 46.175 490.818 43.4159 490.725 38.825H492.701C492.766 42.1946 494.224 43.6219 495.378 43.9162V38.825H497.239V41.7311C498.379 41.606 499.576 40.2817 499.98 38.825H501.842C501.69 39.5805 501.386 40.2958 500.95 40.9263C500.515 41.5567 499.956 42.0887 499.31 42.4889C500.031 42.8546 500.669 43.3722 501.18 44.0076C501.691 44.643 502.064 45.3817 502.275 46.175H500.226C500.037 45.4859 499.652 44.8692 499.121 44.4019C498.59 43.9347 497.935 43.6378 497.239 43.5484V46.175H497.015Z" fill="white"/>
<rect x="515" y="32" width="21" height="21" rx="10.5" fill="#E5E5E5"/>
<path d="M529.7 38.6162L528.122 46.8535C528.122 46.8535 527.901 47.4246 527.295 47.1507L523.654 44.2602L523.637 44.2516C524.129 43.7944 527.942 40.2439 528.109 40.083C528.367 39.8338 528.207 39.6854 527.907 39.8737L522.274 43.5779L520.101 42.8207C520.101 42.8207 519.759 42.6947 519.726 42.4208C519.693 42.1465 520.113 41.9981 520.113 41.9981L528.972 38.3992C528.972 38.3992 529.7 38.068 529.7 38.6162Z" fill="white"/>
<rect x="544" y="32" width="22" height="21" rx="10.5" fill="#E5E5E5"/>
<path d="M559.36 38.3329C558.273 37.2993 556.824 36.7251 555.295 36.7251C552.116 36.7251 549.54 39.1751 549.54 42.1993C549.54 43.1563 549.822 44.1134 550.305 44.9173L549.5 47.7501L552.559 46.9845C553.404 47.4056 554.329 47.6353 555.295 47.6353C558.474 47.6353 561.05 45.1853 561.05 42.161C561.01 40.7446 560.446 39.3665 559.36 38.3329ZM558.072 44.1517C557.951 44.4579 557.388 44.7642 557.106 44.8024C556.865 44.8407 556.543 44.8407 556.221 44.7642C556.02 44.6876 555.738 44.611 555.416 44.4579C553.967 43.8837 553.041 42.5056 552.961 42.3907C552.88 42.3142 552.357 41.6634 552.357 40.9743C552.357 40.2853 552.72 39.979 552.84 39.8259C552.961 39.6728 553.122 39.6728 553.243 39.6728C553.323 39.6728 553.444 39.6728 553.524 39.6728C553.605 39.6728 553.726 39.6345 553.846 39.9024C553.967 40.1704 554.249 40.8595 554.289 40.8978C554.329 40.9743 554.329 41.0509 554.289 41.1274C554.249 41.204 554.209 41.2806 554.128 41.3571C554.048 41.4337 553.967 41.5485 553.927 41.5868C553.846 41.6634 553.766 41.7399 553.846 41.8548C553.927 42.0079 554.209 42.429 554.651 42.8118C555.215 43.2712 555.657 43.4243 555.818 43.5009C555.979 43.5774 556.06 43.5392 556.14 43.4626C556.221 43.386 556.502 43.0798 556.583 42.9267C556.663 42.7735 556.784 42.8118 556.905 42.8501C557.026 42.8884 557.75 43.2329 557.871 43.3095C558.032 43.386 558.112 43.4243 558.152 43.4626C558.193 43.5774 558.193 43.8454 558.072 44.1517Z" fill="white"/>
<rect x="574" y="32" width="21" height="21" rx="10.5" fill="#E5E5E5"/>
<path d="M587.783 37.0117C585.782 36.6296 583.704 36.6296 581.703 37.0117C580.818 37.2028 579.702 38.2728 579.51 39.1135C579.163 40.7567 579.163 42.4381 579.51 44.0813C579.741 44.922 580.857 45.992 581.703 46.1831C581.742 46.1831 581.78 46.2213 581.78 46.2595V48.667C581.78 48.7816 581.934 48.858 582.011 48.7434L583.166 47.5588C583.166 47.5588 584.089 46.6034 584.243 46.4505C584.243 46.4505 584.281 46.4123 584.32 46.4123C585.474 46.4506 586.667 46.3359 587.822 46.1448C588.707 45.9538 589.823 44.8838 590.015 44.0431C590.362 42.3999 590.362 40.7185 590.015 39.0753C589.784 38.2728 588.668 37.2028 587.783 37.0117ZM587.822 44.1959C587.629 44.5781 587.398 44.8838 587.014 45.0748C586.898 45.1131 586.783 45.1513 586.667 45.1895C586.513 45.1513 586.398 45.1131 586.283 45.0748C585.051 44.5781 583.897 43.8902 582.973 42.8967C582.473 42.3234 582.05 41.6738 581.703 40.986C581.549 40.642 581.395 40.3363 581.28 39.9924C581.164 39.6867 581.357 39.381 581.549 39.1517C581.742 38.9224 581.973 38.7695 582.242 38.6549C582.434 38.5403 582.627 38.6167 582.781 38.7695C583.089 39.1517 583.396 39.5338 583.627 39.9542C583.781 40.2217 583.743 40.5274 583.473 40.7185C583.396 40.7567 583.358 40.7949 583.281 40.8713C583.242 40.9095 583.166 40.9477 583.127 41.0242C583.05 41.1388 583.05 41.2535 583.089 41.3681C583.396 42.247 583.974 42.9349 584.859 43.317C585.013 43.3934 585.128 43.4316 585.32 43.4316C585.59 43.3934 585.705 43.0877 585.898 42.9349C586.09 42.782 586.321 42.782 586.552 42.8967C586.744 43.0113 586.937 43.1641 587.168 43.317C587.36 43.4699 587.552 43.5845 587.745 43.7374C587.86 43.8138 587.899 44.0049 587.822 44.1959ZM586.206 41.3299C586.129 41.3299 586.167 41.3299 586.206 41.3299C586.052 41.3299 586.013 41.2535 585.975 41.1388C585.975 41.0624 585.975 40.9477 585.936 40.8713C585.898 40.7185 585.821 40.5656 585.667 40.451C585.59 40.4127 585.513 40.3745 585.436 40.3363C585.32 40.2981 585.244 40.2981 585.128 40.2981C585.013 40.2599 584.974 40.1835 584.974 40.0688C584.974 39.9924 585.09 39.916 585.167 39.916C585.782 39.9542 586.244 40.2981 586.321 41.0242C586.321 41.0624 586.321 41.1388 586.321 41.177C586.321 41.2535 586.283 41.3299 586.206 41.3299ZM585.821 39.6485C585.628 39.572 585.436 39.4956 585.205 39.4574C585.128 39.4574 585.013 39.4192 584.936 39.4192C584.82 39.4192 584.743 39.3428 584.782 39.2281C584.782 39.1135 584.859 39.037 584.974 39.0753C585.359 39.1135 585.705 39.1899 586.052 39.3428C586.744 39.6867 587.129 40.2599 587.245 41.0242C587.245 41.0624 587.245 41.1006 587.245 41.1388C587.245 41.2152 587.245 41.2917 587.245 41.4063C587.245 41.4445 587.245 41.4827 587.245 41.5209C587.206 41.6738 586.937 41.712 586.898 41.5209C586.898 41.4827 586.86 41.4063 586.86 41.3681C586.86 41.0242 586.783 40.6802 586.629 40.3745C586.398 40.0306 586.129 39.8013 585.821 39.6485ZM587.899 41.9413C587.783 41.9413 587.706 41.8267 587.706 41.712C587.706 41.4827 587.668 41.2535 587.629 41.0242C587.475 39.8013 586.475 38.8078 585.282 38.6167C585.09 38.5785 584.897 38.5785 584.743 38.5403C584.628 38.5403 584.474 38.5403 584.435 38.3874C584.397 38.2728 584.512 38.1581 584.628 38.1581C584.666 38.1581 584.705 38.1581 584.705 38.1581C584.782 38.1581 586.283 38.1963 584.705 38.1581C586.321 38.1963 587.668 39.2663 587.937 40.8713C587.976 41.1388 588.014 41.4063 588.014 41.712C588.091 41.8267 588.014 41.9413 587.899 41.9413Z" fill="white"/>
<path d="M1.40909 87V75.3636H5.47727C6.28788 75.3636 6.95644 75.5038 7.48295 75.7841C8.00947 76.0606 8.40152 76.4337 8.65909 76.9034C8.91667 77.3693 9.04545 77.8864 9.04545 78.4545C9.04545 78.9545 8.95644 79.3674 8.77841 79.6932C8.60417 80.0189 8.37311 80.2765 8.08523 80.4659C7.80114 80.6553 7.49242 80.7955 7.15909 80.8864V81C7.51515 81.0227 7.87311 81.1477 8.23295 81.375C8.5928 81.6023 8.89394 81.928 9.13636 82.3523C9.37879 82.7765 9.5 83.2955 9.5 83.9091C9.5 84.4924 9.36742 85.017 9.10227 85.483C8.83712 85.9489 8.41856 86.3182 7.84659 86.5909C7.27462 86.8636 6.5303 87 5.61364 87H1.40909ZM2.81818 85.75H5.61364C6.53409 85.75 7.1875 85.572 7.57386 85.2159C7.96402 84.8561 8.15909 84.4205 8.15909 83.9091C8.15909 83.5152 8.05871 83.1515 7.85795 82.8182C7.6572 82.4811 7.37121 82.2121 7 82.0114C6.62879 81.8068 6.18939 81.7045 5.68182 81.7045H2.81818V85.75ZM2.81818 80.4773H5.43182C5.85606 80.4773 6.23864 80.3939 6.57955 80.2273C6.92424 80.0606 7.19697 79.8258 7.39773 79.5227C7.60227 79.2197 7.70455 78.8636 7.70455 78.4545C7.70455 77.9432 7.52652 77.5095 7.17045 77.1534C6.81439 76.7936 6.25 76.6136 5.47727 76.6136H2.81818V80.4773ZM21.9744 82.0227V83.2727H17.1562V82.0227H21.9744ZM17.4744 78.2727V87H16.1335V78.2727H17.4744ZM22.9972 78.2727V87H21.6562V78.2727H22.9972ZM28.0142 87.2045C27.4612 87.2045 26.9593 87.1004 26.5085 86.892C26.0578 86.6799 25.6998 86.375 25.4347 85.9773C25.1695 85.5758 25.0369 85.0909 25.0369 84.5227C25.0369 84.0227 25.1354 83.6174 25.3324 83.3068C25.5294 82.9924 25.7926 82.7462 26.1222 82.5682C26.4517 82.3902 26.8153 82.2576 27.2131 82.1705C27.6146 82.0795 28.018 82.0076 28.4233 81.9545C28.9536 81.8864 29.3835 81.8352 29.7131 81.8011C30.0464 81.7633 30.2888 81.7008 30.4403 81.6136C30.5956 81.5265 30.6733 81.375 30.6733 81.1591V81.1136C30.6733 80.553 30.5199 80.1174 30.2131 79.8068C29.91 79.4962 29.4498 79.3409 28.8324 79.3409C28.1922 79.3409 27.6903 79.4811 27.3267 79.7614C26.9631 80.0417 26.7074 80.3409 26.5597 80.6591L25.2869 80.2045C25.5142 79.6742 25.8172 79.2614 26.196 78.9659C26.5786 78.6667 26.9953 78.4583 27.446 78.3409C27.9006 78.2197 28.3475 78.1591 28.7869 78.1591C29.0672 78.1591 29.3892 78.1932 29.7528 78.2614C30.1203 78.3258 30.4744 78.4602 30.8153 78.6648C31.16 78.8693 31.446 79.178 31.6733 79.5909C31.9006 80.0038 32.0142 80.5568 32.0142 81.25V87H30.6733V85.8182H30.6051C30.5142 86.0076 30.3627 86.2102 30.1506 86.4261C29.9384 86.642 29.6563 86.8258 29.304 86.9773C28.9517 87.1288 28.5218 87.2045 28.0142 87.2045ZM28.2188 86C28.7491 86 29.196 85.8958 29.5597 85.6875C29.9271 85.4792 30.2036 85.2102 30.3892 84.8807C30.5786 84.5511 30.6733 84.2045 30.6733 83.8409V82.6136C30.6165 82.6818 30.4915 82.7443 30.2983 82.8011C30.1089 82.8542 29.8892 82.9015 29.6392 82.9432C29.393 82.9811 29.1525 83.0152 28.9176 83.0455C28.6866 83.072 28.4991 83.0947 28.3551 83.1136C28.0066 83.1591 27.6809 83.233 27.3778 83.3352C27.0786 83.4337 26.8362 83.5833 26.6506 83.7841C26.4688 83.9811 26.3778 84.25 26.3778 84.5909C26.3778 85.0568 26.5502 85.4091 26.8949 85.6477C27.2434 85.8826 27.6847 86 28.2188 86ZM33.6889 87V85.75H34.0071C34.2685 85.75 34.4863 85.6989 34.6605 85.5966C34.8348 85.4905 34.9749 85.3068 35.081 85.0455C35.1908 84.7803 35.2741 84.4129 35.331 83.9432C35.3916 83.4697 35.4351 82.8674 35.4616 82.1364L35.6207 78.2727H41.4389V87H40.098V79.5227H36.8935L36.7571 82.6364C36.7268 83.3523 36.6624 83.983 36.5639 84.5284C36.4692 85.0701 36.3234 85.5246 36.1264 85.892C35.9332 86.2595 35.6757 86.536 35.3537 86.7216C35.0317 86.9072 34.6283 87 34.1435 87H33.6889ZM45.2401 85.0227L49.4446 78.2727H50.9901V87H49.6491V80.25L45.4673 87H43.8991V78.2727H45.2401V85.0227ZM60.1733 78.2727V87H58.8324V78.2727H60.1733ZM59.6506 82.4318V83.6818C59.3475 83.7955 59.0464 83.8958 58.7472 83.983C58.4479 84.0663 58.1335 84.1326 57.804 84.1818C57.4744 84.2273 57.1127 84.25 56.7188 84.25C55.7301 84.25 54.9366 83.983 54.3381 83.4489C53.7434 82.9148 53.446 82.1136 53.446 81.0455V78.25H54.7869V81.0455C54.7869 81.4924 54.8722 81.8598 55.0426 82.1477C55.2131 82.4356 55.4441 82.6496 55.7358 82.7898C56.0275 82.9299 56.3551 83 56.7188 83C57.2869 83 57.8002 82.9489 58.2585 82.8466C58.7206 82.7405 59.1847 82.6023 59.6506 82.4318ZM63.9744 85.0227L68.179 78.2727H69.7244V87H68.3835V80.25L64.2017 87H62.6335V78.2727H63.9744V85.0227ZM73.5213 85.0227L77.7259 78.2727H79.2713V87H77.9304V80.25L73.7486 87H72.1804V78.2727H73.5213V85.0227Z" fill="#4D932C"/>
</svg>
