<svg width="310" height="360" viewBox="0 0 310 360" fill="none" xmlns="http://www.w3.org/2000/svg">
<path d="M51.49 220.3C50.05 220.3 48.8167 219.987 47.79 219.36C46.7633 218.727 45.9733 217.847 45.42 216.72C44.8733 215.593 44.6 214.287 44.6 212.8C44.6 211.313 44.8733 210.007 45.42 208.88C45.9733 207.753 46.7633 206.877 47.79 206.25C48.8167 205.617 50.05 205.3 51.49 205.3C53.15 205.3 54.5333 205.717 55.64 206.55C56.7467 207.377 57.5233 208.493 57.97 209.9L55.54 210.57C55.26 209.63 54.7833 208.897 54.11 208.37C53.4367 207.837 52.5633 207.57 51.49 207.57C50.5233 207.57 49.7167 207.787 49.07 208.22C48.43 208.653 47.9467 209.263 47.62 210.05C47.3 210.83 47.1367 211.747 47.13 212.8C47.13 213.853 47.29 214.773 47.61 215.56C47.9367 216.34 48.4233 216.947 49.07 217.38C49.7167 217.813 50.5233 218.03 51.49 218.03C52.5633 218.03 53.4367 217.763 54.11 217.23C54.7833 216.697 55.26 215.963 55.54 215.03L57.97 215.7C57.5233 217.107 56.7467 218.227 55.64 219.06C54.5333 219.887 53.15 220.3 51.49 220.3ZM63.1856 220.3C62.4056 220.3 61.7456 220.153 61.2056 219.86C60.6656 219.56 60.2556 219.163 59.9756 218.67C59.7023 218.177 59.5656 217.633 59.5656 217.04C59.5656 216.52 59.6523 216.053 59.8256 215.64C59.999 215.22 60.2656 214.86 60.6256 214.56C60.9856 214.253 61.4523 214.003 62.0256 213.81C62.459 213.67 62.9656 213.543 63.5456 213.43C64.1323 213.317 64.7656 213.213 65.4456 213.12C66.1323 213.02 66.849 212.913 67.5956 212.8L66.7356 213.29C66.7423 212.543 66.5756 211.993 66.2356 211.64C65.8956 211.287 65.3223 211.11 64.5156 211.11C64.029 211.11 63.559 211.223 63.1056 211.45C62.6523 211.677 62.3356 212.067 62.1556 212.62L59.9556 211.93C60.2223 211.017 60.729 210.283 61.4756 209.73C62.229 209.177 63.2423 208.9 64.5156 208.9C65.4756 208.9 66.319 209.057 67.0456 209.37C67.779 209.683 68.3223 210.197 68.6756 210.91C68.869 211.29 68.9856 211.68 69.0256 212.08C69.0656 212.473 69.0856 212.903 69.0856 213.37V220H66.9756V217.66L67.3256 218.04C66.839 218.82 66.269 219.393 65.6156 219.76C64.969 220.12 64.159 220.3 63.1856 220.3ZM63.6656 218.38C64.2123 218.38 64.679 218.283 65.0656 218.09C65.4523 217.897 65.759 217.66 65.9856 217.38C66.219 217.1 66.3756 216.837 66.4556 216.59C66.5823 216.283 66.6523 215.933 66.6656 215.54C66.6856 215.14 66.6956 214.817 66.6956 214.57L67.4356 214.79C66.709 214.903 66.0856 215.003 65.5656 215.09C65.0456 215.177 64.599 215.26 64.2256 215.34C63.8523 215.413 63.5223 215.497 63.2356 215.59C62.9556 215.69 62.719 215.807 62.5256 215.94C62.3323 216.073 62.1823 216.227 62.0756 216.4C61.9756 216.573 61.9256 216.777 61.9256 217.01C61.9256 217.277 61.9923 217.513 62.1256 217.72C62.259 217.92 62.4523 218.08 62.7056 218.2C62.9656 218.32 63.2856 218.38 63.6656 218.38ZM71.6691 220V209.2H73.6491L77.5191 216.66L81.3991 209.2H83.3691V220H81.0691V214.05L77.9991 220H77.0491L73.9791 214.05V220H71.6691ZM86.1517 220L86.1417 209.2H88.5517V212.8H89.7617C90.0617 212.8 90.3984 212.807 90.7717 212.82C91.1517 212.833 91.4684 212.863 91.7217 212.91C92.3284 213.043 92.8451 213.257 93.2717 213.55C93.7051 213.843 94.0351 214.227 94.2617 214.7C94.4884 215.173 94.6017 215.743 94.6017 216.41C94.6017 217.363 94.3551 218.127 93.8617 218.7C93.3684 219.267 92.6784 219.653 91.7917 219.86C91.5317 219.92 91.2084 219.96 90.8217 219.98C90.4351 219.993 90.0917 220 89.7917 220H86.1517ZM88.5517 218.11H90.0017C90.1484 218.11 90.3117 218.103 90.4917 218.09C90.6717 218.077 90.8417 218.047 91.0017 218C91.3017 217.92 91.5684 217.74 91.8017 217.46C92.0351 217.173 92.1517 216.823 92.1517 216.41C92.1517 215.977 92.0351 215.62 91.8017 215.34C91.5684 215.06 91.2817 214.877 90.9417 214.79C90.7817 214.75 90.6184 214.723 90.4517 214.71C90.2917 214.697 90.1417 214.69 90.0017 214.69H88.5517V218.11ZM95.7317 220V209.2H98.1417V220H95.7317ZM105.857 220.3C104.764 220.3 103.804 220.063 102.977 219.59C102.15 219.117 101.504 218.46 101.037 217.62C100.577 216.78 100.347 215.813 100.347 214.72C100.347 213.54 100.574 212.517 101.027 211.65C101.48 210.777 102.11 210.1 102.917 209.62C103.724 209.14 104.657 208.9 105.717 208.9C106.837 208.9 107.787 209.163 108.567 209.69C109.354 210.21 109.937 210.947 110.317 211.9C110.697 212.853 110.84 213.977 110.747 215.27H108.357V214.39C108.35 213.217 108.144 212.36 107.737 211.82C107.33 211.28 106.69 211.01 105.817 211.01C104.83 211.01 104.097 211.317 103.617 211.93C103.137 212.537 102.897 213.427 102.897 214.6C102.897 215.693 103.137 216.54 103.617 217.14C104.097 217.74 104.797 218.04 105.717 218.04C106.31 218.04 106.82 217.91 107.247 217.65C107.68 217.383 108.014 217 108.247 216.5L110.627 217.22C110.214 218.193 109.574 218.95 108.707 219.49C107.847 220.03 106.897 220.3 105.857 220.3ZM102.137 215.27V213.45H109.567V215.27H102.137ZM116.962 220V209.2H119.372V213.46H124.222V209.2H126.632V220H124.222V215.72H119.372V220H116.962ZM138.783 209.2V220H136.473V212.95L131.333 220H129.403V209.2H131.713V216.07L136.873 209.2H138.783ZM145.431 220.3C144.405 220.3 143.468 220.083 142.621 219.65C141.775 219.217 141.108 218.623 140.621 217.87L142.521 216.6C142.908 217.06 143.338 217.417 143.811 217.67C144.285 217.917 144.811 218.04 145.391 218.04C145.998 218.04 146.475 217.907 146.821 217.64C147.168 217.373 147.341 217.017 147.341 216.57C147.341 216.177 147.225 215.9 146.991 215.74C146.758 215.573 146.451 215.473 146.071 215.44C145.691 215.407 145.285 215.39 144.851 215.39H144.051V213.48H144.841C145.448 213.48 145.955 213.41 146.361 213.27C146.775 213.13 146.981 212.82 146.981 212.34C146.981 211.907 146.821 211.6 146.501 211.42C146.181 211.233 145.808 211.14 145.381 211.14C144.861 211.14 144.348 211.25 143.841 211.47C143.335 211.69 142.881 211.957 142.481 212.27L141.121 210.63C141.721 210.097 142.391 209.677 143.131 209.37C143.871 209.057 144.661 208.9 145.501 208.9C146.195 208.9 146.841 209.02 147.441 209.26C148.048 209.5 148.535 209.86 148.901 210.34C149.275 210.82 149.461 211.413 149.461 212.12C149.461 212.627 149.351 213.103 149.131 213.55C148.918 213.997 148.575 214.42 148.101 214.82L148.071 214.04C148.438 214.193 148.748 214.407 149.001 214.68C149.261 214.953 149.458 215.273 149.591 215.64C149.731 216.007 149.801 216.397 149.801 216.81C149.801 217.563 149.601 218.2 149.201 218.72C148.801 219.24 148.268 219.633 147.601 219.9C146.941 220.167 146.218 220.3 145.431 220.3ZM151.982 220L152.002 209.2H154.442V214.4L158.392 209.2H161.402L157.212 214.6L161.762 220H158.572L154.442 214.8V220H151.982ZM172.123 209.2V220H169.813V212.95L164.673 220H162.743V209.2H165.053V216.07L170.213 209.2H172.123ZM179.841 220.3C178.748 220.3 177.788 220.063 176.961 219.59C176.135 219.117 175.488 218.46 175.021 217.62C174.561 216.78 174.331 215.813 174.331 214.72C174.331 213.54 174.558 212.517 175.011 211.65C175.465 210.777 176.095 210.1 176.901 209.62C177.708 209.14 178.641 208.9 179.701 208.9C180.821 208.9 181.771 209.163 182.551 209.69C183.338 210.21 183.921 210.947 184.301 211.9C184.681 212.853 184.825 213.977 184.731 215.27H182.341V214.39C182.335 213.217 182.128 212.36 181.721 211.82C181.315 211.28 180.675 211.01 179.801 211.01C178.815 211.01 178.081 211.317 177.601 211.93C177.121 212.537 176.881 213.427 176.881 214.6C176.881 215.693 177.121 216.54 177.601 217.14C178.081 217.74 178.781 218.04 179.701 218.04C180.295 218.04 180.805 217.91 181.231 217.65C181.665 217.383 181.998 217 182.231 216.5L184.611 217.22C184.198 218.193 183.558 218.95 182.691 219.49C181.831 220.03 180.881 220.3 179.841 220.3ZM176.121 215.27V213.45H183.551V215.27H176.121ZM54.44 248.27V246H45.38V235.2H47.79V243.74H52.35V235.2H54.76V243.86H56.85V248.27H54.44ZM63.3569 246.3C62.2635 246.3 61.3035 246.063 60.4769 245.59C59.6502 245.117 59.0035 244.46 58.5369 243.62C58.0769 242.78 57.8469 241.813 57.8469 240.72C57.8469 239.54 58.0735 238.517 58.5269 237.65C58.9802 236.777 59.6102 236.1 60.4169 235.62C61.2235 235.14 62.1569 234.9 63.2169 234.9C64.3369 234.9 65.2869 235.163 66.0669 235.69C66.8535 236.21 67.4369 236.947 67.8169 237.9C68.1969 238.853 68.3402 239.977 68.2469 241.27H65.8569V240.39C65.8502 239.217 65.6435 238.36 65.2369 237.82C64.8302 237.28 64.1902 237.01 63.3169 237.01C62.3302 237.01 61.5969 237.317 61.1169 237.93C60.6369 238.537 60.3969 239.427 60.3969 240.6C60.3969 241.693 60.6369 242.54 61.1169 243.14C61.5969 243.74 62.2969 244.04 63.2169 244.04C63.8102 244.04 64.3202 243.91 64.7469 243.65C65.1802 243.383 65.5135 243 65.7469 242.5L68.1269 243.22C67.7135 244.193 67.0735 244.95 66.2069 245.49C65.3469 246.03 64.3969 246.3 63.3569 246.3ZM59.6369 241.27V239.45H67.0669V241.27H59.6369ZM70.4581 246V235.2H72.8681V239.46H77.7181V235.2H80.1281V246H77.7181V241.72H72.8681V246H70.4581ZM82.9095 246L82.8995 235.2H85.3095V238.8H86.5195C86.8195 238.8 87.1562 238.807 87.5295 238.82C87.9095 238.833 88.2262 238.863 88.4795 238.91C89.0862 239.043 89.6029 239.257 90.0295 239.55C90.4629 239.843 90.7929 240.227 91.0195 240.7C91.2462 241.173 91.3595 241.743 91.3595 242.41C91.3595 243.363 91.1129 244.127 90.6195 244.7C90.1262 245.267 89.4362 245.653 88.5495 245.86C88.2895 245.92 87.9662 245.96 87.5795 245.98C87.1929 245.993 86.8495 246 86.5495 246H82.9095ZM85.3095 244.11H86.7595C86.9062 244.11 87.0695 244.103 87.2495 244.09C87.4295 244.077 87.5995 244.047 87.7595 244C88.0595 243.92 88.3262 243.74 88.5595 243.46C88.7929 243.173 88.9095 242.823 88.9095 242.41C88.9095 241.977 88.7929 241.62 88.5595 241.34C88.3262 241.06 88.0395 240.877 87.6995 240.79C87.5395 240.75 87.3762 240.723 87.2095 240.71C87.0495 240.697 86.8995 240.69 86.7595 240.69H85.3095V244.11ZM92.4895 246V235.2H94.8995V246H92.4895Z" fill="#454545"/>
<path opacity="0.5" d="M45.12 288V276.48H46.296V281.672H52.664V276.48H53.832V288H52.664V282.8H46.296V288H45.12ZM62.9371 279.36V288H61.7931V281.272L57.0571 288H56.0651V279.36H57.2091V286.032L61.9531 279.36H62.9371ZM64.2225 288L67.8705 283.68L64.3745 279.36H65.7025L69.1105 283.624V279.36H70.1985V283.624L73.6065 279.36H74.9265L71.4305 283.68L75.0785 288H73.7105L70.1985 283.736V288H69.1105V283.736L65.5905 288H64.2225ZM79.6979 288.24C78.8552 288.24 78.1245 288.053 77.5059 287.68C76.8925 287.307 76.4152 286.781 76.0739 286.104C75.7325 285.427 75.5619 284.632 75.5619 283.72C75.5619 282.776 75.7299 281.96 76.0659 281.272C76.4019 280.584 76.8739 280.053 77.4819 279.68C78.0952 279.307 78.8179 279.12 79.6499 279.12C80.5032 279.12 81.2312 279.317 81.8339 279.712C82.4365 280.101 82.8925 280.661 83.2019 281.392C83.5112 282.123 83.6525 282.995 83.6259 284.008H82.4259V283.592C82.4045 282.472 82.1619 281.627 81.6979 281.056C81.2392 280.485 80.5672 280.2 79.6819 280.2C78.7539 280.2 78.0419 280.501 77.5459 281.104C77.0552 281.707 76.8099 282.565 76.8099 283.68C76.8099 284.768 77.0552 285.613 77.5459 286.216C78.0419 286.813 78.7432 287.112 79.6499 287.112C80.2685 287.112 80.8072 286.971 81.2659 286.688C81.7299 286.4 82.0952 285.987 82.3619 285.448L83.4579 285.872C83.1165 286.624 82.6125 287.208 81.9459 287.624C81.2845 288.035 80.5352 288.24 79.6979 288.24ZM76.3939 284.008V283.024H82.9939V284.008H76.3939ZM88.5964 288V279.36H89.7724V283.112H94.6444V279.36H95.8204V288H94.6444V284.24H89.7724V288H88.5964ZM101.714 288.24C100.871 288.24 100.14 288.053 99.5215 287.68C98.9082 287.307 98.4308 286.781 98.0895 286.104C97.7482 285.427 97.5775 284.632 97.5775 283.72C97.5775 282.776 97.7455 281.96 98.0815 281.272C98.4175 280.584 98.8895 280.053 99.4975 279.68C100.111 279.307 100.834 279.12 101.666 279.12C102.519 279.12 103.247 279.317 103.85 279.712C104.452 280.101 104.908 280.661 105.218 281.392C105.527 282.123 105.668 282.995 105.642 284.008H104.442V283.592C104.42 282.472 104.178 281.627 103.714 281.056C103.255 280.485 102.583 280.2 101.698 280.2C100.77 280.2 100.058 280.501 99.5615 281.104C99.0708 281.707 98.8255 282.565 98.8255 283.68C98.8255 284.768 99.0708 285.613 99.5615 286.216C100.058 286.813 100.759 287.112 101.666 287.112C102.284 287.112 102.823 286.971 103.282 286.688C103.746 286.4 104.111 285.987 104.378 285.448L105.474 285.872C105.132 286.624 104.628 287.208 103.962 287.624C103.3 288.035 102.551 288.24 101.714 288.24ZM98.4095 284.008V283.024H105.01V284.008H98.4095ZM114.084 288.248C113.279 288.243 112.588 288.067 112.012 287.72C111.436 287.373 110.988 286.856 110.668 286.168C110.353 285.48 110.183 284.621 110.156 283.592C110.14 283.139 110.151 282.645 110.188 282.112C110.225 281.573 110.284 281.061 110.364 280.576C110.444 280.091 110.54 279.696 110.652 279.392C110.791 278.997 110.988 278.629 111.244 278.288C111.505 277.941 111.807 277.659 112.148 277.44C112.479 277.216 112.852 277.043 113.268 276.92C113.689 276.792 114.127 276.693 114.58 276.624C115.039 276.555 115.492 276.493 115.94 276.44C116.393 276.387 116.812 276.32 117.196 276.24L117.324 277.304C117.031 277.363 116.684 277.416 116.284 277.464C115.884 277.512 115.465 277.571 115.028 277.64C114.591 277.704 114.172 277.792 113.772 277.904C113.372 278.016 113.031 278.163 112.748 278.344C112.316 278.605 111.983 279 111.748 279.528C111.519 280.056 111.377 280.661 111.324 281.344C111.655 280.827 112.092 280.437 112.636 280.176C113.185 279.915 113.78 279.784 114.42 279.784C115.199 279.784 115.868 279.963 116.428 280.32C116.993 280.677 117.428 281.173 117.732 281.808C118.036 282.443 118.188 283.171 118.188 283.992C118.188 284.851 118.02 285.6 117.684 286.24C117.353 286.88 116.881 287.376 116.268 287.728C115.655 288.075 114.927 288.248 114.084 288.248ZM114.172 287.12C115.079 287.12 115.767 286.837 116.236 286.272C116.711 285.707 116.948 284.955 116.948 284.016C116.948 283.056 116.703 282.299 116.212 281.744C115.727 281.189 115.041 280.912 114.156 280.912C113.271 280.912 112.591 281.189 112.116 281.744C111.641 282.299 111.404 283.056 111.404 284.016C111.404 284.976 111.641 285.733 112.116 286.288C112.591 286.843 113.276 287.12 114.172 287.12ZM120.868 291.84L122.54 287.304L122.564 288.648L118.78 279.36H120.028L123.132 287.128H122.62L125.484 279.36H126.684L122.044 291.84H120.868ZM127.121 289.92V286.992C127.611 286.992 127.963 286.835 128.177 286.52C128.39 286.2 128.563 285.691 128.697 284.992C128.787 284.539 128.862 284.051 128.921 283.528C128.979 283.005 129.03 282.408 129.073 281.736C129.115 281.059 129.155 280.267 129.193 279.36H134.905V286.992H135.737V289.92H134.601V288H128.249V289.92H127.121ZM129.113 286.992H133.737V280.368H130.281C130.265 280.773 130.241 281.203 130.209 281.656C130.182 282.109 130.147 282.563 130.105 283.016C130.067 283.469 130.022 283.896 129.969 284.296C129.921 284.691 129.862 285.037 129.793 285.336C129.713 285.72 129.625 286.048 129.529 286.32C129.438 286.592 129.299 286.816 129.113 286.992ZM140.995 288.24C140.152 288.24 139.421 288.053 138.803 287.68C138.189 287.307 137.712 286.781 137.371 286.104C137.029 285.427 136.859 284.632 136.859 283.72C136.859 282.776 137.027 281.96 137.363 281.272C137.699 280.584 138.171 280.053 138.779 279.68C139.392 279.307 140.115 279.12 140.947 279.12C141.8 279.12 142.528 279.317 143.131 279.712C143.733 280.101 144.189 280.661 144.499 281.392C144.808 282.123 144.949 282.995 144.923 284.008H143.723V283.592C143.701 282.472 143.459 281.627 142.995 281.056C142.536 280.485 141.864 280.2 140.979 280.2C140.051 280.2 139.339 280.501 138.843 281.104C138.352 281.707 138.107 282.565 138.107 283.68C138.107 284.768 138.352 285.613 138.843 286.216C139.339 286.813 140.04 287.112 140.947 287.112C141.565 287.112 142.104 286.971 142.563 286.688C143.027 286.4 143.392 285.987 143.659 285.448L144.755 285.872C144.413 286.624 143.909 287.208 143.243 287.624C142.581 288.035 141.832 288.24 140.995 288.24ZM137.691 284.008V283.024H144.291V284.008H137.691ZM148.933 288V280.448H145.869V279.36H153.173V280.448H150.109V288H148.933ZM157.893 288V279.36H159.069V283.112H163.941V279.36H165.117V288H163.941V284.24H159.069V288H157.893ZM174.218 279.36V288H173.074V281.272L168.338 288H167.346V279.36H168.49V286.032L173.234 279.36H174.218ZM176.464 288V279.36H182.384V280.488H177.64V288H176.464ZM183.105 289.92V286.992C183.596 286.992 183.948 286.835 184.161 286.52C184.374 286.2 184.548 285.691 184.681 284.992C184.772 284.539 184.846 284.051 184.905 283.528C184.964 283.005 185.014 282.408 185.057 281.736C185.1 281.059 185.14 280.267 185.177 279.36H190.889V286.992H191.721V289.92H190.585V288H184.233V289.92H183.105ZM185.097 286.992H189.721V280.368H186.265C186.249 280.773 186.225 281.203 186.193 281.656C186.166 282.109 186.132 282.563 186.089 283.016C186.052 283.469 186.006 283.896 185.953 284.296C185.905 284.691 185.846 285.037 185.777 285.336C185.697 285.72 185.609 286.048 185.513 286.32C185.422 286.592 185.284 286.816 185.097 286.992ZM196.979 288.24C196.136 288.24 195.406 288.053 194.787 287.68C194.174 287.307 193.696 286.781 193.355 286.104C193.014 285.427 192.843 284.632 192.843 283.72C192.843 282.776 193.011 281.96 193.347 281.272C193.683 280.584 194.155 280.053 194.763 279.68C195.376 279.307 196.099 279.12 196.931 279.12C197.784 279.12 198.512 279.317 199.115 279.712C199.718 280.101 200.174 280.661 200.483 281.392C200.792 282.123 200.934 282.995 200.907 284.008H199.707V283.592C199.686 282.472 199.443 281.627 198.979 281.056C198.52 280.485 197.848 280.2 196.963 280.2C196.035 280.2 195.323 280.501 194.827 281.104C194.336 281.707 194.091 282.565 194.091 283.68C194.091 284.768 194.336 285.613 194.827 286.216C195.323 286.813 196.024 287.112 196.931 287.112C197.55 287.112 198.088 286.971 198.547 286.688C199.011 286.4 199.376 285.987 199.643 285.448L200.739 285.872C200.398 286.624 199.894 287.208 199.227 287.624C198.566 288.035 197.816 288.24 196.979 288.24ZM193.675 284.008V283.024H200.275V284.008H193.675Z" fill="#454545"/>
<rect opacity="0.5" x="0.5" y="0.5" width="309" height="359" stroke="#D9D9D9"/>
<rect x="40" y="40" width="80" height="80" rx="10" fill="#454545"/>
<g clip-path="url(#clip0_160_1185)">
<path d="M61.8348 91.8348C61.8348 101.867 69.9676 110 80 110C90.0324 110 98.1652 101.867 98.1652 91.8348C98.1652 81.8025 90.0324 73.6697 80 73.6697C69.9676 73.6697 61.8348 81.8025 61.8348 91.8348ZM78.2425 83.221V80.9356H81.7578V83.2288C84.2322 83.6364 86.126 85.7894 86.126 88.3775H82.6107C82.6107 87.4379 81.8464 86.6735 80.9067 86.6735H79.0499C78.1116 86.6735 77.348 87.4371 77.348 88.3754C77.348 89.3139 78.1116 90.0773 79.0499 90.0773H80.9502C83.827 90.0773 86.1674 92.4177 86.1674 95.2944C86.1674 97.8965 84.2524 100.06 81.7577 100.449V102.734H78.2423V100.453C75.7651 100.079 73.8601 97.9358 73.8601 95.3557H77.3755C77.3755 96.2603 78.1115 96.9963 79.0161 96.9963H80.9502C81.8885 96.9963 82.6521 96.2327 82.6521 95.2944C82.6521 94.356 81.8885 93.5925 80.9502 93.5925H79.0499C76.1731 93.5925 73.8327 91.2521 73.8327 88.3753C73.8327 85.7734 75.7478 83.6104 78.2425 83.221ZM83.5372 70.4424C85.222 70.7185 86.8678 71.1942 88.44 71.8596C90.5019 72.7303 92.4156 73.9167 94.1125 75.3761V62.0062H97.6424V58.8175L88.8248 50L80.0073 58.8176V62.0063H83.5372V70.4424ZM65.8874 75.3761C67.5843 73.9167 69.498 72.7303 71.5598 71.8596C73.132 71.1942 74.7779 70.7184 76.4627 70.4424V67.6301H79.9926V64.4414L71.175 55.6238L62.3574 64.4414V67.6301H65.8874V75.3761Z" fill="white"/>
</g>
<defs>
<clipPath id="clip0_160_1185">
<rect width="60" height="60" fill="white" transform="translate(50 50)"/>
</clipPath>
</defs>
</svg>
